<?xml version="1.0" encoding="UTF-8"?><svg id="a" xmlns="http://www.w3.org/2000/svg" viewBox="0 0 500 243.78"><defs><style>.b{fill:#1683be;}</style></defs><path class="b" d="M112.91,172.25c-16.75-1.65-35.89-4.13-55.11-5.02-4.82-.22-9.84,4.72-14.83,7.16-5.46,2.67-10.76,6.24-16.55,7.54-8.14,1.83-13.82-2.52-15.75-10.56-1.82-7.62,2.36-11.35,8.47-15.62,22.33-15.6,49.67-13.27,73.85-21.9,1.27-.45,2.64-.66,4.91-1.22-2.81-5.27-5.14-10.09-7.88-14.66-8.2-13.65-16.91-27.02-24.69-40.9-3.31-5.9-7.4-8.04-14.2-7.48-2.79,.1-5.58,.08-8.37,.08-3.5,0-7-.01-10.49-.11-1.97-.05-3.94-.08-5.9-.35-1.74-.24-3.47-.59-5.19-.98-3.64-.82-7.43-1.72-10.81-3.34-.13-.06-.27-.13-.4-.2-12.12-6.3-13.5-21.83-2.38-29.64C23.8,23.68,38.06,9.38,57.55,2.81c9.95-3.36,18.84-4.17,28.88,.13,21.04,9.02,36.23,25.6,53.58,39.39,2.01,1.6,4.17,3.11,5.81,5.05,7.91,9.39,16.76,8.28,26.95,3.82,26.28-11.51,53.62-19.2,82.49-20.49,26.48-1.18,50,6.87,68.52,25.61,12.07,12.22,22.93,26.06,32.15,40.56,16.73,26.32,39.83,39.61,70.71,38.19,26.06-1.2,48.86-10.61,66.31-30.89,.71-.83,1.65-1.47,2.71-2.4,6.25,3.53,4.25,9.15,3.14,13.61-3.33,13.32-11.62,23.34-22.93,30.83-31.56,20.92-66.09,24.34-102.18,16.37-10.46-2.31-20.5-6.55-31.03-10-1.63,5.81-1.22,11.53,5.22,15.91,1.56,1.06,2.56,3.56,2.97,5.57,3.75,18.39-5.58,32.29-26.01,39.09-6.21,2.07-12.9,3.32-18.46,6.53-6.15,3.55-12.19,8.16-16.62,13.64-7.68,9.49-19.19,13.11-29.47,8.4-5.58-2.55-6.57-6.74-4.54-11.08,4.63-9.89,7.93-20.48,19.06-26.39,11.87-6.3,22.72-14.52,34.58-22.26-6.58-2.98-13.77-6.25-20.97-9.49-5.45-2.45-11.68-3.87-16.25-7.44-13.93-10.87-28.23-7.22-43.02-3-9.44,2.7-19.09,4.77-28.74,6.64-6.93,1.34-11.17-1.78-13.11-8.85-.63-2.29-3.78-3.89-6.2-6.21-3.64,12.65-6.5,22.99-9.62,33.24-2.27,7.46-8.4,10.33-15.31,12.19-18.56,4.99-37,10.24-56.27,12.25-5.37,.56-11.05,4.23-15.32,7.94-9.73,8.45-20.44,10.65-30.6,4.9-7.3-4.13-7.39-11.52-1.68-17.66,12.25-13.18,27.79-20.1,44.25-25.96,6.59-2.35,12.6-6.34,16.4-8.3Z"/></svg>